<svg version="1.1" xmlns="http://www.w3.org/2000/svg" xmlns:xlink="http://www.w3.org/1999/xlink" width="210.5" height="114.41383" viewBox="0,0,210.5,114.41383"><g transform="translate(-134.75,-122.79308)"><g data-paper-data="{&quot;isPaintingLayer&quot;:true}" fill-rule="nonzero" stroke="none" stroke-linecap="butt" stroke-linejoin="miter" stroke-miterlimit="10" stroke-dasharray="" stroke-dashoffset="0" style="mix-blend-mode: normal"><path d="M134.75,237.20692v-114.41383h210.5v114.41383z" fill="#000000" stroke-width="0"/><path d="M154.3576,219.56399c-0.91242,0 -1.61428,-0.24246 -2.10559,-0.72739c-0.48492,-0.4913 -0.72739,-1.19317 -0.72739,-2.10559v-30.02376c0,-0.91242 0.24246,-1.61109 0.72739,-2.09602c0.4913,-0.4913 1.19317,-0.73696 2.10559,-0.73696h12.04971c2.46289,0 4.56209,0.37007 6.29761,1.11022c1.7419,0.74015 3.07544,1.80251 4.00062,3.1871c0.93156,1.38458 1.39735,3.05629 1.39735,5.01513c0,2.15663 -0.64125,3.97829 -1.92374,5.46496c-0.96907,1.12335 -2.19863,1.9662 -3.68865,2.52853c1.78522,0.46737 3.2349,1.30581 4.34904,2.5153c1.41649,1.53134 2.12473,3.52846 2.12473,5.99136c0,3.17752 -1.04641,5.61809 -3.13924,7.32171c-2.09283,1.70361 -5.02788,2.55542 -8.80517,2.55542h-12.66225zM156.58761,215.51551h9.8197c2.53307,0 4.40577,-0.49768 5.61808,-1.49305c1.21869,-0.99537 1.82803,-2.50756 1.82803,-4.53659c0,-2.02264 -0.60934,-3.52208 -1.82803,-4.4983c-1.21231,-0.98261 -3.085,-1.47391 -5.61808,-1.47391h-9.8197zM156.58761,199.4652h9.00618c2.43099,0 4.27177,-0.48811 5.52237,-1.46434c1.25059,-0.98261 1.87589,-2.41824 1.87589,-4.30689c0,-1.88865 -0.6253,-3.32109 -1.87589,-4.29732c-1.25059,-0.98261 -3.09138,-1.47391 -5.52237,-1.47391h-9.00618z" fill="#ffffff" stroke-width="1"/><path d="M315.16231,220.02339c-2.16301,0 -4.06442,-0.51364 -5.70423,-1.54091c-1.63343,-1.03365 -2.90635,-2.52033 -3.81877,-4.46002c-0.91242,-1.93969 -1.36863,-4.21118 -1.36863,-6.81445c0,-2.66708 0.45621,-4.94494 1.36863,-6.83357c0.91242,-1.88865 2.18535,-3.35618 3.81877,-4.40259c1.63981,-1.04641 3.54122,-1.56962 5.70423,-1.56962c2.15663,0 4.01976,0.53278 5.58938,1.59833c1.14361,0.7717 2.01456,1.73816 2.61284,2.89938v-12.80521c0,-0.84224 0.21694,-1.48029 0.65082,-1.91417c0.44026,-0.44026 1.06556,-0.66039 1.87589,-0.66039c0.81033,0 1.44201,0.22013 1.89503,0.66039c0.4594,0.43388 0.6891,1.07194 0.6891,1.91417v31.23926c0,0.81033 -0.22013,1.4452 -0.66039,1.9046c-0.44026,0.45302 -1.06556,0.67953 -1.87589,0.67953c-0.81033,0 -1.43563,-0.22651 -1.87589,-0.67953c-0.43388,-0.4594 -0.65082,-1.09427 -0.65082,-1.9046v-1.93475c-0.59829,1.18572 -1.46924,2.17838 -2.61284,2.97797c-1.56962,1.09746 -3.4487,1.64619 -5.63724,1.64619zM316.47352,216.07062c1.38458,0 2.60008,-0.33817 3.6465,-1.01451c1.04641,-0.67634 1.86313,-1.67171 2.45014,-2.98611c0.59339,-1.3144 0.89009,-2.93506 0.89009,-4.862c0,-2.90316 -0.64125,-5.09488 -1.92374,-6.57516c-1.28249,-1.48667 -2.97016,-2.23001 -5.06298,-2.23001c-1.41649,0 -2.64794,0.3286 -3.69435,0.9858c-1.04641,0.6572 -1.86632,1.64619 -2.45971,2.96697c-0.58701,1.31439 -0.88052,2.93185 -0.88052,4.85241c0,2.87126 0.64125,5.06617 1.92374,6.58475c1.28249,1.51858 2.98611,2.27786 5.11084,2.27786z" fill="#ffffff" stroke-width="1"/><path d="M211.46749,220.02339c-2.4948,0 -4.64506,-0.52321 -6.45076,-1.56962c-1.8057,-1.04641 -3.21581,-2.5299 -4.23032,-4.45045c-1.01451,-1.92693 -1.52177,-4.19204 -1.52177,-6.79531c0,-1.99074 0.28713,-3.76134 0.86138,-5.31181c0.57425,-1.55686 1.39096,-2.89997 2.45014,-4.02933c1.06556,-1.12936 2.34805,-1.98755 3.84748,-2.57456c1.50582,-0.59339 3.1871,-0.89009 5.04384,-0.89009c2.4629,0 4.5972,0.52321 6.4029,1.56962c1.8057,1.04641 3.21581,2.52352 4.23032,4.43131c1.01451,1.90778 1.52177,4.17607 1.52177,6.80486c0,1.95884 -0.28713,3.73263 -0.86138,5.3214c-0.57425,1.58238 -1.39415,2.93187 -2.45971,4.04847c-1.05917,1.11022 -2.34167,1.96203 -3.84748,2.55542c-1.49943,0.59339 -3.16157,0.89009 -4.98642,0.89009zM211.46749,216.07062c1.38458,0 2.60008,-0.33817 3.6465,-1.01451c1.04641,-0.67634 1.86313,-1.67171 2.45014,-2.98611c0.59339,-1.3144 0.89009,-2.93506 0.89009,-4.862c0,-2.90316 -0.64125,-5.09488 -1.92374,-6.57516c-1.28249,-1.48667 -2.97016,-2.23001 -5.06298,-2.23001c-1.41649,0 -2.64794,0.3286 -3.69435,0.9858c-1.04641,0.6572 -1.86632,1.64619 -2.45971,2.96697c-0.58701,1.31439 -0.88052,2.93185 -0.88052,4.85241c0,2.87126 0.64125,5.06617 1.92374,6.58475c1.28249,1.51858 2.98611,2.27786 5.11084,2.27786z" fill="#ffffff" stroke-width="1"/><path d="M246.37883,176.37457c-0.81033,0 -1.43563,-0.22651 -1.87589,-0.67953c-0.44026,-0.4594 -0.66039,-1.09427 -0.66039,-1.9046v-20.25192c0,-0.84224 0.22013,-1.48348 0.66039,-1.92374c0.44026,-0.44026 1.04641,-0.66039 1.81846,-0.66039c0.81033,0 1.42606,0.22013 1.84718,0.66039c0.4275,0.44026 0.64125,1.08151 0.64125,1.92374v1.79465c0.64744,-1.20771 1.50562,-2.19195 2.57456,-2.95272c1.42287,-1.01451 3.12967,-1.52177 5.12041,-1.52177c2.05454,0 3.72306,0.4913 5.00556,1.47391c1.05595,0.80378 1.83723,1.96225 2.34384,3.47541c0.66131,-1.37766 1.61873,-2.49466 2.87228,-3.35099c1.55686,-1.06556 3.36256,-1.59833 5.41711,-1.59833c1.89503,0 3.4487,0.36369 4.66101,1.09108c1.21231,0.721 2.12154,1.81846 2.72769,3.29238c0.61253,1.46753 0.9188,3.3147 0.9188,5.54151v13.0068c0,0.81033 -0.2297,1.4452 -0.6891,1.9046c-0.45302,0.45302 -1.0847,0.67953 -1.89503,0.67953c-0.81033,0 -1.43563,-0.22651 -1.87589,-0.67953c-0.43388,-0.4594 -0.65082,-1.09427 -0.65082,-1.9046v-12.75795c0,-2.09282 -0.36369,-3.62734 -1.09108,-4.60356c-0.72739,-0.98261 -1.91736,-1.47391 -3.56993,-1.47391c-1.85675,0 -3.32747,0.64125 -4.41217,1.92374c-1.07832,1.28249 -1.61748,3.05629 -1.61748,5.32138v11.59031c0,0.81033 -0.22013,1.4452 -0.66039,1.9046c-0.43388,0.45302 -1.05598,0.67953 -1.86632,0.67953c-0.81033,0 -1.4452,-0.22651 -1.9046,-0.67953c-0.45302,-0.4594 -0.67953,-1.09427 -0.67953,-1.9046v-12.75795c0,-2.09282 -0.35412,-3.62734 -1.06237,-4.60356c-0.70824,-0.98261 -1.88865,-1.47391 -3.54122,-1.47391c-1.85675,0 -3.3179,0.64125 -4.38345,1.92374c-1.06556,1.28249 -1.59833,3.05629 -1.59833,5.32138v11.59031c0,1.72275 -0.85819,2.58413 -2.57456,2.58413z" fill="#ffffff" stroke-width="1"/><path d="M224.45461,176.47984c-1.72275,0 -3.26685,-0.33817 -4.6323,-1.01451c-1.36544,-0.67634 -2.43738,-1.58876 -3.21581,-2.73727c-0.77843,-1.1485 -1.16764,-2.44695 -1.16764,-3.89534c0,-1.82484 0.46259,-3.26685 1.38777,-4.32603c0.93156,-1.06556 2.46928,-1.82484 4.61315,-2.27786c2.14387,-0.4594 5.03746,-0.6891 8.68077,-0.6891h1.72275v-1.31121c0,-1.92692 -0.40517,-3.3115 -1.2155,-4.15373c-0.81033,-0.84862 -2.14387,-1.27292 -4.00062,-1.27292c-1.07832,0 -2.2013,0.13718 -3.36894,0.41155c-1.16126,0.26798 -2.36719,0.72419 -3.61778,1.36863c-0.57425,0.26798 -1.06556,0.35093 -1.47391,0.24884c-0.40198,-0.10209 -0.721,-0.3286 -0.95709,-0.67953c-0.23608,-0.35731 -0.36369,-0.74653 -0.38283,-1.16764c-0.01276,-0.42112 0.08933,-0.83266 0.30627,-1.23464c0.22332,-0.40836 0.60296,-0.71462 1.13893,-0.9188c1.48667,-0.70824 2.9542,-1.21231 4.40259,-1.5122c1.45477,-0.30627 2.8234,-0.4594 4.1059,-0.4594c2.2651,0 4.13142,0.35412 5.59895,1.06237c1.46753,0.70824 2.55542,1.78975 3.26366,3.24452c0.70824,1.44839 1.06237,3.32108 1.06237,5.61808v13.0068c0,0.81033 -0.20418,1.4452 -0.61253,1.9046c-0.40198,0.45302 -0.99218,0.67953 -1.77061,0.67953c-0.74015,0 -1.33035,-0.22651 -1.77061,-0.67953c-0.44026,-0.4594 -0.66039,-1.09427 -0.66039,-1.9046l0,-1.81074c-0.26732,0.63813 -0.61187,1.21618 -1.03365,1.73417c-0.72739,0.89328 -1.63024,1.57919 -2.70855,2.05773c-1.07832,0.47216 -2.30977,0.70824 -3.69435,0.70824zM230.17799,164.67898c-2.431,0 -4.35793,0.11804 -5.7808,0.35412c-1.41649,0.23608 -2.42143,0.63487 -3.01482,1.19636c-0.58701,0.55511 -0.88052,1.32078 -0.88052,2.29701c0,1.28249 0.43707,2.32253 1.31121,3.1201c0.88052,0.79119 2.09921,1.18679 3.65607,1.18679c1.24421,0 2.33848,-0.29351 3.2828,-0.88052c0.95071,-0.59339 1.70361,-1.39735 2.25872,-2.41186c0.55511,-1.01451 0.83266,-2.17897 0.83266,-3.49336l0,-1.36863z" fill="#ffffff" stroke-width="1"/><path d="M299.18253,176.47984c-2.69898,0 -5.02151,-0.51364 -6.96758,-1.54091c-1.93969,-1.03365 -3.44232,-2.50437 -4.50787,-4.41217c-1.05917,-1.90779 -1.58876,-4.17608 -1.58876,-6.80488c0,-2.57137 0.52321,-4.81733 1.56962,-6.73787c1.04641,-1.92693 2.47885,-3.42956 4.29732,-4.50787c1.82484,-1.07832 3.90172,-1.61748 6.23063,-1.61748c1.72275,0 3.25728,0.27755 4.60358,0.83266c1.35268,0.55511 2.51076,1.36544 3.47422,2.431c0.96347,1.06556 1.68766,2.35762 2.17258,3.8762c0.4913,1.51856 0.73696,3.22217 0.73696,5.11082c0,0.57425 -0.16909,1.00494 -0.50726,1.29207c-0.33179,0.28713 -0.83585,0.43069 -1.5122,0.43069h-16.11015c0.17549,2.3465 0.85901,4.16177 2.05055,5.44582c1.40373,1.49943 3.43913,2.24915 6.10621,2.24915c1.01451,0 2.08645,-0.13399 3.21581,-0.40198c1.12936,-0.27436 2.2013,-0.73058 3.21581,-1.36863c0.57425,-0.33817 1.08789,-0.48811 1.54091,-0.44983c0.4594,0.0319 0.83266,0.18185 1.11979,0.44983c0.28713,0.26798 0.46259,0.60615 0.5264,1.01451c0.07019,0.40198 0.00319,0.81352 -0.20099,1.23464c-0.20418,0.42112 -0.5583,0.80076 -1.06237,1.13893c-1.1485,0.77843 -2.48204,1.36225 -4.00062,1.75147c-1.51858,0.38921 -2.98611,0.58382 -4.40259,0.58382zM304.16894,158.09424c-0.4913,-1.18041 -1.21869,-2.08326 -2.18216,-2.70855c-0.95709,-0.6253 -2.14387,-0.93794 -3.56036,-0.93794c-1.58876,0 -2.93187,0.37326 -4.02933,1.11979c-1.09746,0.74015 -1.93331,1.77061 -2.50756,3.09139c-0.39609,0.90659 -0.65557,1.9179 -0.77846,3.03394l13.77982,0c-0.0601,-1.38713 -0.30075,-2.58667 -0.72195,-3.59862z" fill="#ffffff" stroke-width="1"/><path d="M290.14674,220.02339c-2.69898,0 -5.02151,-0.51364 -6.96758,-1.54091c-1.93969,-1.03365 -3.44232,-2.50437 -4.50787,-4.41217c-1.05917,-1.90779 -1.58876,-4.17608 -1.58876,-6.80488c0,-2.57137 0.52321,-4.81733 1.56962,-6.73787c1.04641,-1.92693 2.47885,-3.42956 4.29732,-4.50787c1.82484,-1.07832 3.90172,-1.61748 6.23063,-1.61748c1.72275,0 3.25728,0.27755 4.60358,0.83266c1.35266,0.55511 2.51072,1.36544 3.47418,2.431c0.96347,1.06556 1.68766,2.35762 2.17258,3.8762c0.4913,1.51856 0.73696,3.22217 0.73696,5.11082c0,0.57425 -0.16909,1.00494 -0.50726,1.29207c-0.33179,0.28713 -0.83585,0.43069 -1.5122,0.43069l-16.11011,0c0.17549,2.3465 0.85901,4.16177 2.05055,5.44582c1.40373,1.49943 3.43913,2.24915 6.10621,2.24915c1.01451,0 2.08645,-0.13399 3.21581,-0.40198c1.12934,-0.27436 2.20126,-0.73058 3.21577,-1.36863c0.57425,-0.33817 1.08789,-0.48811 1.54091,-0.44983c0.4594,0.0319 0.83266,0.18185 1.11979,0.44983c0.28713,0.26798 0.46259,0.60615 0.5264,1.01451c0.07019,0.40198 0.00319,0.81352 -0.20099,1.23464c-0.20418,0.42112 -0.5583,0.80076 -1.06237,1.13893c-1.1485,0.77843 -2.48204,1.36225 -4.00062,1.75147c-1.51855,0.38921 -2.98607,0.58382 -4.40256,0.58382zM295.13312,201.63779c-0.4913,-1.18041 -1.21868,-2.08326 -2.18212,-2.70855c-0.95709,-0.6253 -2.14387,-0.93794 -3.56036,-0.93794c-1.58876,0 -2.93187,0.37326 -4.02933,1.11979c-1.09746,0.74015 -1.93331,1.77061 -2.50756,3.09139c-0.39609,0.90659 -0.65557,1.9179 -0.77846,3.03394h13.77978c-0.0601,-1.38713 -0.30075,-2.58667 -0.72195,-3.59862z" fill="#ffffff" stroke-width="1"/><path d="M255.51516,219.91811c-0.81033,0 -1.43563,-0.22651 -1.87589,-0.67953c-0.43388,-0.4594 -0.65082,-1.09427 -0.65082,-1.9046v-31.23926c0,-0.84224 0.21694,-1.48029 0.65082,-1.91417c0.44026,-0.44026 1.06556,-0.66039 1.87589,-0.66039c0.81033,0 1.44201,0.22013 1.89503,0.66039c0.4594,0.43388 0.6891,1.07194 0.6891,1.91417v19.54367h0.09571l9.47515,-9.41771c0.53597,-0.53597 1.02408,-0.95709 1.46434,-1.26335c0.44026,-0.30627 1.01451,-0.4594 1.72275,-0.4594c0.70824,0 1.2474,0.18823 1.61748,0.56468c0.37007,0.37007 0.55511,0.81671 0.55511,1.33992c0,0.52321 -0.25203,1.05279 -0.7561,1.58876l-8.82558,8.74127l9.73481,9.69219c0.54235,0.54235 0.79438,1.0847 0.7561,1.62705c-0.0319,0.53597 -0.25203,0.98261 -0.66039,1.33992c-0.40198,0.35093 -0.90604,0.5264 -1.5122,0.5264c-0.77205,0 -1.38777,-0.14994 -1.84718,-0.44983c-0.45302,-0.30627 -0.9858,-0.76248 -1.59833,-1.36863l-10.12597,-9.82927h-0.09571v9.0636c0,1.72275 -0.86138,2.58413 -2.58413,2.58413z" fill="#ffffff" stroke-width="1"/><path d="M184.40686,176.37457c-0.81033,0 -1.4452,-0.22651 -1.9046,-0.67953c-0.45302,-0.4594 -0.67953,-1.09427 -0.67953,-1.9046v-18.52916h-2.83297c-0.64444,0 -1.15169,-0.17547 -1.52177,-0.5264c-0.37007,-0.35731 -0.55511,-0.83905 -0.55511,-1.4452c0,-0.64444 0.18504,-1.13574 0.55511,-1.47391c0.37007,-0.33817 0.87733,-0.50726 1.52177,-0.50726h2.83297v-0.44983c0,-3.34342 0.82628,-5.86694 2.47885,-7.57055c1.65257,-1.70361 4.06761,-2.70855 7.24513,-3.01482l1.56962,-0.09571c0.57425,-0.07019 1.02727,0.01276 1.35906,0.24884c0.33817,0.23608 0.5583,0.54235 0.66039,0.9188c0.10209,0.37007 0.11166,0.74972 0.02871,1.13893c-0.08295,0.38283 -0.2616,0.72739 -0.53597,1.03365c-0.26798,0.29989 -0.60296,0.46897 -1.00494,0.50726l-0.96666,0.04785c-1.99074,0.16589 -3.44232,0.73058 -4.35473,1.69404c-0.91242,0.96347 -1.36863,2.42462 -1.36863,4.38345l0,1.15807h4.90984c0.71462,0 1.2474,0.16909 1.59833,0.50726c0.35731,0.33817 0.53597,0.82947 0.53597,1.47391c0,0.60615 -0.17866,1.08789 -0.53597,1.4452c-0.35093,0.35093 -0.88371,0.5264 -1.59833,0.5264h-4.90984v18.52916c0,1.72275 -0.84224,2.58413 -2.52671,2.58413z" fill="#ffffff" stroke-width="1"/><path d="M240.22642,220.02339c-2.53309,0 -4.71843,-0.53278 -6.55604,-1.59833c-1.8376,-1.06556 -3.26366,-2.56818 -4.27817,-4.50787c-1.01451,-1.93969 -1.52177,-4.22713 -1.52177,-6.86231c0,-1.95246 0.28713,-3.71349 0.86138,-5.28309c0.57425,-1.56962 1.39096,-2.89359 2.45014,-3.97191c1.06556,-1.0847 2.36719,-1.92055 3.90491,-2.50756c1.53772,-0.59339 3.2509,-0.89009 5.13955,-0.89009c1.18041,0 2.41824,0.17866 3.71349,0.53597c1.30164,0.35093 2.51076,0.93156 3.62736,1.7419c0.44026,0.26798 0.71781,0.59658 0.83266,0.9858c0.12123,0.38921 0.13718,0.788 0.04785,1.19636c-0.08295,0.40198 -0.26798,0.74653 -0.55511,1.03365c-0.28713,0.28713 -0.63487,0.45621 -1.04322,0.50726c-0.40198,0.05104 -0.83905,-0.06062 -1.31121,-0.33498c-0.81033,-0.57425 -1.63662,-0.9858 -2.47885,-1.23464c-0.84224,-0.25522 -1.65257,-0.38283 -2.431,-0.38283c-1.21231,0 -2.28424,0.19461 -3.21581,0.58382c-0.92518,0.38921 -1.70999,0.94751 -2.35443,1.6749c-0.63806,0.721 -1.11979,1.62385 -1.4452,2.70853c-0.31903,1.07832 -0.47854,2.30977 -0.47854,3.69435c0,2.76279 0.65082,4.92899 1.95246,6.49861c1.30164,1.56962 3.14881,2.35443 5.54153,2.35443c0.77843,0 1.58876,-0.11804 2.431,-0.35412c0.84224,-0.23608 1.66852,-0.64125 2.47885,-1.2155c0.47216,-0.26798 0.90923,-0.36688 1.31121,-0.2967c0.40836,0.06381 0.74015,0.23927 0.99537,0.5264c0.25522,0.28713 0.42431,0.6253 0.50726,1.01451c0.08295,0.38921 0.05743,0.788 -0.07657,1.19636c-0.13399,0.40198 -0.42112,0.73696 -0.86138,1.00494c-1.07832,0.77843 -2.25234,1.33673 -3.52208,1.6749c-1.26335,0.33817 -2.48523,0.50726 -3.66564,0.50726z" fill="#ffffff" stroke-width="1"/><path d="M193.44283,220.02339c-2.63518,0 -4.61953,-0.76886 -5.95307,-2.30658c-1.32716,-1.53772 -1.99074,-3.75816 -1.99074,-6.66132v-24.96078c0,-0.84224 0.21694,-1.48029 0.65082,-1.91417c0.44026,-0.44026 1.06556,-0.66039 1.87589,-0.66039c0.81033,0 1.44201,0.22013 1.89503,0.66039c0.4594,0.43388 0.6891,1.07194 0.6891,1.91417v24.66408c0,1.68447 0.34455,2.94144 1.03365,3.77092c0.69548,0.82309 1.70042,1.23464 3.01482,1.23464c0.30627,0 0.57744,-0.00638 0.81352,-0.01914c0.23608,-0.01914 0.47216,-0.04466 0.70824,-0.07657c0.40198,-0.03828 0.68591,0.07019 0.85181,0.32541c0.17228,0.25522 0.25841,0.76886 0.25841,1.54091c0,0.70824 -0.15313,1.25697 -0.4594,1.64619c-0.29989,0.38921 -0.788,0.63487 -1.46434,0.73696c-0.29989,0.0319 -0.61892,0.05743 -0.95709,0.07657c-0.33817,0.01914 -0.66039,0.02871 -0.96666,0.02871z" fill="#ffffff" stroke-width="1"/><path d="M169.97671,176.37457c-0.84224,0 -1.49305,-0.23608 -1.95246,-0.70824c-0.45302,-0.47216 -0.67953,-1.12936 -0.67953,-1.9716v-31.03827c0,-0.88052 0.22651,-1.54729 0.67953,-2.00031c0.4594,-0.45302 1.11022,-0.67953 1.95246,-0.67953c0.84224,0 1.48986,0.22651 1.94288,0.67953c0.4594,0.45302 0.6891,1.11979 0.6891,2.00031v31.03827c0,0.84224 -0.22013,1.49943 -0.66039,1.9716c-0.44026,0.47216 -1.09746,0.70824 -1.9716,0.70824z" fill="#ffffff" stroke-width="1"/><path d="M200.50148,176.37457c-0.84224,0 -1.48348,-0.22651 -1.92374,-0.67953c-0.43388,-0.4594 -0.65082,-1.09427 -0.65082,-1.9046v-20.25192c0,-0.84224 0.21694,-1.48348 0.65082,-1.92374c0.44026,-0.44026 1.0496,-0.66039 1.82803,-0.66039c0.81033,0 1.42606,0.22013 1.84718,0.66039c0.42112,0.44026 0.63168,1.08151 0.63168,1.92374l0,2.23312c0.576,-1.31712 1.40229,-2.36457 2.47885,-3.14235c1.45477,-1.04641 3.31152,-1.65257 5.57024,-1.81846c0.60615,-0.03828 1.0847,0.11166 1.43563,0.44983c0.35731,0.33817 0.55511,0.86138 0.59339,1.56962c0.06381,0.70824 -0.08933,1.27611 -0.4594,1.70361c-0.37007,0.42112 -0.94432,0.66358 -1.72275,0.72739l-0.95709,0.10528c-2.19492,0.1978 -3.86663,0.89009 -5.01513,2.07688c-1.1485,1.18039 -1.72275,2.79786 -1.72275,4.85241v11.4946c0,0.81033 -0.21056,1.4452 -0.63168,1.9046c-0.42112,0.45302 -1.07194,0.67953 -1.95246,0.67953z" fill="#ffffff" stroke-width="1"/></g></g></svg>